<svg width="87" height="79" viewBox="0 0 87 79" fill="none" xmlns="http://www.w3.org/2000/svg">
<path d="M81.8 41.9H5.09999C3.49999 41.9 2.29999 43.2 2.29999 44.7C2.29999 46.3 3.59999 47.5 5.09999 47.5H81.8C83.4 47.5 84.6 46.2 84.6 44.7C84.6 43.2 83.4 41.9 81.8 41.9Z" stroke="#1D2E5B" stroke-width="3" stroke-miterlimit="10" stroke-linecap="round" stroke-linejoin="round"/>
<path d="M5.09998 76.6C12.2 76.6 18 70.8 18 63.7" stroke="#1D2E5B" stroke-width="3" stroke-miterlimit="10" stroke-linecap="round" stroke-linejoin="round"/>
<path d="M81 76.6C73.9 76.6 68.1 70.8 68.1 63.7" stroke="#1D2E5B" stroke-width="3" stroke-miterlimit="10" stroke-linecap="round" stroke-linejoin="round"/>
<path d="M81 41.9V9.79999C81 5.59999 77.6 2.29999 73.5 2.29999C69.3 2.29999 66 5.69999 66 9.79999" stroke="#1D2E5B" stroke-width="3" stroke-miterlimit="10" stroke-linecap="round" stroke-linejoin="round"/>
<path d="M68.7 70.8H16C9.99998 70.8 5.09998 66 5.09998 60V47.6H81V58.5C81 65.3 75.5 70.8 68.7 70.8Z" stroke="#1D2E5B" stroke-width="3" stroke-miterlimit="10" stroke-linecap="round" stroke-linejoin="round"/>
<path d="M72.5 17.1V18.5H59.5V17.1C59.5 13.5 62.4 10.6 66 10.6C66.1 10.6 66.2 10.6 66.3 10.6C69.7 10.8 72.5 13.7 72.5 17.1Z" stroke="#1D2E5B" stroke-width="3" stroke-miterlimit="10" stroke-linecap="round" stroke-linejoin="round"/>
</svg>
