<svg width="82" height="81" viewBox="0 0 82 81" fill="none" xmlns="http://www.w3.org/2000/svg">
<path d="M2 66.9V78.6" stroke="#1D2E5B" stroke-width="3" stroke-miterlimit="10" stroke-linecap="round"/>
<path d="M9.29999 72.9V78.6" stroke="#1D2E5B" stroke-width="3" stroke-miterlimit="10" stroke-linecap="round"/>
<path d="M16.5 72.9V78.6" stroke="#1D2E5B" stroke-width="3" stroke-miterlimit="10" stroke-linecap="round"/>
<path d="M23.8 72.9V78.6" stroke="#1D2E5B" stroke-width="3" stroke-miterlimit="10" stroke-linecap="round"/>
<path d="M31.1 66.9V78.6" stroke="#1D2E5B" stroke-width="3" stroke-miterlimit="10" stroke-linecap="round"/>
<path d="M38.3 72.9V78.6" stroke="#1D2E5B" stroke-width="3" stroke-miterlimit="10" stroke-linecap="round"/>
<path d="M45.6 72.9V78.6" stroke="#1D2E5B" stroke-width="3" stroke-miterlimit="10" stroke-linecap="round"/>
<path d="M52.9 72.9V78.6" stroke="#1D2E5B" stroke-width="3" stroke-miterlimit="10" stroke-linecap="round"/>
<path d="M60.1 66.9V78.6" stroke="#1D2E5B" stroke-width="3" stroke-miterlimit="10" stroke-linecap="round"/>
<path d="M68.8 60.1H80.5" stroke="#1D2E5B" stroke-width="3" stroke-miterlimit="10" stroke-linecap="round"/>
<path d="M74.8 52.9H80.5" stroke="#1D2E5B" stroke-width="3" stroke-miterlimit="10" stroke-linecap="round"/>
<path d="M74.8 45.6H80.5" stroke="#1D2E5B" stroke-width="3" stroke-miterlimit="10" stroke-linecap="round"/>
<path d="M74.8 38.3H80.5" stroke="#1D2E5B" stroke-width="3" stroke-miterlimit="10" stroke-linecap="round"/>
<path d="M68.8 31.1H80.5" stroke="#1D2E5B" stroke-width="3" stroke-miterlimit="10" stroke-linecap="round"/>
<path d="M74.8 23.8H80.5" stroke="#1D2E5B" stroke-width="3" stroke-miterlimit="10" stroke-linecap="round"/>
<path d="M74.8 16.5H80.5" stroke="#1D2E5B" stroke-width="3" stroke-miterlimit="10" stroke-linecap="round"/>
<path d="M74.8 9.3H80.5" stroke="#1D2E5B" stroke-width="3" stroke-miterlimit="10" stroke-linecap="round"/>
<path d="M68.8 2H80.5" stroke="#1D2E5B" stroke-width="3" stroke-miterlimit="10" stroke-linecap="round"/>
<path d="M52.9 8.60001V29H2V28.9H32.3V8.60001H52.9Z" stroke="#1D2E5B" stroke-width="3" stroke-miterlimit="10" stroke-linecap="round" stroke-linejoin="round"/>
<path d="M2 39.8H52.9V60.1" stroke="#1D2E5B" stroke-width="3" stroke-miterlimit="10" stroke-linecap="round" stroke-linejoin="round"/>
<path d="M17.1 39.8V60.1" stroke="#1D2E5B" stroke-width="3" stroke-miterlimit="10" stroke-linecap="round" stroke-linejoin="round"/>
<path d="M32.2 39.8V60.1" stroke="#1D2E5B" stroke-width="3" stroke-miterlimit="10" stroke-linecap="round" stroke-linejoin="round"/>
<path d="M32.2 20.9H2V29H32.2V20.9Z" stroke="#1D2E5B" stroke-width="3" stroke-miterlimit="10" stroke-linecap="round" stroke-linejoin="round"/>
<path d="M52.9 8.60001H32.3V29H52.9V8.60001Z" stroke="#1D2E5B" stroke-width="3" stroke-miterlimit="10" stroke-linecap="round" stroke-linejoin="round"/>
<path d="M39 48.4H35.8V51.6H39V48.4Z" fill="#1D2E5B"/>
<path d="M60.1 2V60.1H2V29H52.9V8.6H32.3V2H60.1Z" stroke="#1D2E5B" stroke-width="3" stroke-miterlimit="10" stroke-linecap="round" stroke-linejoin="round"/>
</svg>
